<mxfile host="Electron" modified="2023-12-29T15:56:43.739Z" agent="Mozilla/5.0 (Windows NT 10.0; Win64; x64) AppleWebKit/537.36 (KHTML, like Gecko) draw.io/22.0.3 Chrome/114.0.5735.289 Electron/25.8.4 Safari/537.36" etag="xpZx_kHgiFKKQqtc5LjH" version="22.0.3" type="device">
  <diagram name="第 1 页" id="nhCs0hrqKpqIJ9Cs7s1S">
    <mxGraphModel dx="1036" dy="606" grid="1" gridSize="10" guides="1" tooltips="1" connect="1" arrows="1" fold="1" page="1" pageScale="1" pageWidth="827" pageHeight="1169" math="0" shadow="0">
      <root>
        <mxCell id="0" />
        <mxCell id="1" parent="0" />
        <mxCell id="EqT0d9yoY_PJOsiz8gr6-27" value="" style="rounded=0;whiteSpace=wrap;html=1;strokeColor=none;" parent="1" vertex="1">
          <mxGeometry x="90" y="30" width="430" height="160" as="geometry" />
        </mxCell>
        <mxCell id="EqT0d9yoY_PJOsiz8gr6-1" value="" style="rounded=0;whiteSpace=wrap;html=1;fillColor=#e1d5e7;strokeColor=#9673a6;" parent="1" vertex="1">
          <mxGeometry x="216" y="40" width="20" height="40" as="geometry" />
        </mxCell>
        <mxCell id="EqT0d9yoY_PJOsiz8gr6-2" value="" style="rounded=0;whiteSpace=wrap;html=1;fillColor=#e1d5e7;strokeColor=#9673a6;" parent="1" vertex="1">
          <mxGeometry x="216" y="140" width="20" height="40" as="geometry" />
        </mxCell>
        <mxCell id="EqT0d9yoY_PJOsiz8gr6-7" value="" style="endArrow=classic;startArrow=classic;html=1;rounded=0;" parent="1" edge="1">
          <mxGeometry width="50" height="50" relative="1" as="geometry">
            <mxPoint x="206" y="80" as="sourcePoint" />
            <mxPoint x="206" y="40" as="targetPoint" />
          </mxGeometry>
        </mxCell>
        <mxCell id="EqT0d9yoY_PJOsiz8gr6-8" value="" style="endArrow=classic;startArrow=classic;html=1;rounded=0;" parent="1" edge="1">
          <mxGeometry width="50" height="50" relative="1" as="geometry">
            <mxPoint x="206" y="180" as="sourcePoint" />
            <mxPoint x="206" y="140" as="targetPoint" />
          </mxGeometry>
        </mxCell>
        <mxCell id="EqT0d9yoY_PJOsiz8gr6-9" value="&lt;span style=&quot;font-size: 14px;&quot;&gt;NN&#39;&lt;/span&gt;" style="text;html=1;align=center;verticalAlign=middle;resizable=0;points=[];autosize=1;strokeColor=none;fillColor=none;" parent="1" vertex="1">
          <mxGeometry x="161" y="45" width="50" height="30" as="geometry" />
        </mxCell>
        <mxCell id="EqT0d9yoY_PJOsiz8gr6-10" value="&lt;span style=&quot;font-size: 14px;&quot;&gt;NN&#39;&lt;/span&gt;" style="text;html=1;align=center;verticalAlign=middle;resizable=0;points=[];autosize=1;strokeColor=none;fillColor=none;" parent="1" vertex="1">
          <mxGeometry x="161" y="145" width="50" height="30" as="geometry" />
        </mxCell>
        <mxCell id="EqT0d9yoY_PJOsiz8gr6-11" value="" style="endArrow=classic;html=1;rounded=0;exitX=1;exitY=0.5;exitDx=0;exitDy=0;" parent="1" source="EqT0d9yoY_PJOsiz8gr6-1" target="EqT0d9yoY_PJOsiz8gr6-12" edge="1">
          <mxGeometry width="50" height="50" relative="1" as="geometry">
            <mxPoint x="356" y="58" as="sourcePoint" />
            <mxPoint x="406" y="8" as="targetPoint" />
          </mxGeometry>
        </mxCell>
        <mxCell id="EqT0d9yoY_PJOsiz8gr6-12" value="&lt;b&gt;&lt;font style=&quot;font-size: 16px;&quot;&gt;MLP&lt;br&gt;Encoder&lt;/font&gt;&lt;/b&gt;" style="rounded=1;whiteSpace=wrap;html=1;fillColor=#ffe6cc;strokeColor=#d79b00;" parent="1" vertex="1">
          <mxGeometry x="266" y="70" width="80" height="80" as="geometry" />
        </mxCell>
        <mxCell id="EqT0d9yoY_PJOsiz8gr6-13" value="" style="endArrow=classic;html=1;rounded=0;" parent="1" source="EqT0d9yoY_PJOsiz8gr6-2" target="EqT0d9yoY_PJOsiz8gr6-12" edge="1">
          <mxGeometry width="50" height="50" relative="1" as="geometry">
            <mxPoint x="246" y="90" as="sourcePoint" />
            <mxPoint x="306" y="138" as="targetPoint" />
          </mxGeometry>
        </mxCell>
        <mxCell id="EqT0d9yoY_PJOsiz8gr6-14" value="&lt;font style=&quot;font-size: 14px;&quot;&gt;k vectors&lt;/font&gt;" style="text;html=1;align=center;verticalAlign=middle;resizable=0;points=[];autosize=1;strokeColor=none;fillColor=none;" parent="1" vertex="1">
          <mxGeometry x="81" y="95" width="80" height="30" as="geometry" />
        </mxCell>
        <mxCell id="EqT0d9yoY_PJOsiz8gr6-15" value="" style="rounded=0;whiteSpace=wrap;html=1;fillColor=#ffe6cc;strokeColor=#d79b00;" parent="1" vertex="1">
          <mxGeometry x="376" y="40" width="20" height="40" as="geometry" />
        </mxCell>
        <mxCell id="EqT0d9yoY_PJOsiz8gr6-16" value="" style="rounded=0;whiteSpace=wrap;html=1;fillColor=#ffe6cc;strokeColor=#d79b00;" parent="1" vertex="1">
          <mxGeometry x="376" y="140" width="20" height="40" as="geometry" />
        </mxCell>
        <mxCell id="EqT0d9yoY_PJOsiz8gr6-20" value="" style="endArrow=classic;startArrow=classic;html=1;rounded=0;" parent="1" edge="1">
          <mxGeometry width="50" height="50" relative="1" as="geometry">
            <mxPoint x="406" y="80" as="sourcePoint" />
            <mxPoint x="406" y="40" as="targetPoint" />
          </mxGeometry>
        </mxCell>
        <mxCell id="EqT0d9yoY_PJOsiz8gr6-21" value="" style="endArrow=classic;startArrow=classic;html=1;rounded=0;" parent="1" edge="1">
          <mxGeometry width="50" height="50" relative="1" as="geometry">
            <mxPoint x="406" y="180" as="sourcePoint" />
            <mxPoint x="406" y="140" as="targetPoint" />
          </mxGeometry>
        </mxCell>
        <mxCell id="EqT0d9yoY_PJOsiz8gr6-22" value="&lt;span style=&quot;font-size: 14px;&quot;&gt;NN&#39;&lt;/span&gt;" style="text;html=1;align=center;verticalAlign=middle;resizable=0;points=[];autosize=1;strokeColor=none;fillColor=none;" parent="1" vertex="1">
          <mxGeometry x="401" y="45" width="50" height="30" as="geometry" />
        </mxCell>
        <mxCell id="EqT0d9yoY_PJOsiz8gr6-23" value="&lt;span style=&quot;font-size: 14px;&quot;&gt;NN&#39;&lt;/span&gt;" style="text;html=1;align=center;verticalAlign=middle;resizable=0;points=[];autosize=1;strokeColor=none;fillColor=none;" parent="1" vertex="1">
          <mxGeometry x="401" y="145" width="50" height="30" as="geometry" />
        </mxCell>
        <mxCell id="EqT0d9yoY_PJOsiz8gr6-24" value="" style="endArrow=classic;html=1;rounded=0;" parent="1" source="EqT0d9yoY_PJOsiz8gr6-12" target="EqT0d9yoY_PJOsiz8gr6-15" edge="1">
          <mxGeometry width="50" height="50" relative="1" as="geometry">
            <mxPoint x="216" y="90" as="sourcePoint" />
            <mxPoint x="276" y="138" as="targetPoint" />
          </mxGeometry>
        </mxCell>
        <mxCell id="EqT0d9yoY_PJOsiz8gr6-25" value="" style="endArrow=classic;html=1;rounded=0;" parent="1" source="EqT0d9yoY_PJOsiz8gr6-12" target="EqT0d9yoY_PJOsiz8gr6-16" edge="1">
          <mxGeometry width="50" height="50" relative="1" as="geometry">
            <mxPoint x="356" y="141" as="sourcePoint" />
            <mxPoint x="416" y="220" as="targetPoint" />
          </mxGeometry>
        </mxCell>
        <mxCell id="EqT0d9yoY_PJOsiz8gr6-26" value="&lt;font style=&quot;font-size: 14px;&quot;&gt;r vectors&lt;/font&gt;" style="text;html=1;align=center;verticalAlign=middle;resizable=0;points=[];autosize=1;strokeColor=none;fillColor=none;" parent="1" vertex="1">
          <mxGeometry x="447" y="95" width="80" height="30" as="geometry" />
        </mxCell>
        <mxCell id="czv-a2nJ618KkXbS3twf-1" value="" style="group" parent="1" vertex="1" connectable="0">
          <mxGeometry x="216" y="80" width="20" height="60" as="geometry" />
        </mxCell>
        <mxCell id="EqT0d9yoY_PJOsiz8gr6-4" value="" style="shape=waypoint;sketch=0;fillStyle=solid;size=6;pointerEvents=1;points=[];fillColor=none;resizable=0;rotatable=0;perimeter=centerPerimeter;snapToPoint=1;" parent="czv-a2nJ618KkXbS3twf-1" vertex="1">
          <mxGeometry width="20" height="20" as="geometry" />
        </mxCell>
        <mxCell id="EqT0d9yoY_PJOsiz8gr6-5" value="" style="shape=waypoint;sketch=0;fillStyle=solid;size=6;pointerEvents=1;points=[];fillColor=none;resizable=0;rotatable=0;perimeter=centerPerimeter;snapToPoint=1;" parent="czv-a2nJ618KkXbS3twf-1" vertex="1">
          <mxGeometry y="20" width="20" height="20" as="geometry" />
        </mxCell>
        <mxCell id="EqT0d9yoY_PJOsiz8gr6-6" value="" style="shape=waypoint;sketch=0;fillStyle=solid;size=6;pointerEvents=1;points=[];fillColor=none;resizable=0;rotatable=0;perimeter=centerPerimeter;snapToPoint=1;" parent="czv-a2nJ618KkXbS3twf-1" vertex="1">
          <mxGeometry y="40" width="20" height="20" as="geometry" />
        </mxCell>
        <mxCell id="czv-a2nJ618KkXbS3twf-2" value="" style="group" parent="1" vertex="1" connectable="0">
          <mxGeometry x="376" y="80" width="20" height="60" as="geometry" />
        </mxCell>
        <mxCell id="czv-a2nJ618KkXbS3twf-3" value="" style="shape=waypoint;sketch=0;fillStyle=solid;size=6;pointerEvents=1;points=[];fillColor=none;resizable=0;rotatable=0;perimeter=centerPerimeter;snapToPoint=1;" parent="czv-a2nJ618KkXbS3twf-2" vertex="1">
          <mxGeometry width="20" height="20" as="geometry" />
        </mxCell>
        <mxCell id="czv-a2nJ618KkXbS3twf-4" value="" style="shape=waypoint;sketch=0;fillStyle=solid;size=6;pointerEvents=1;points=[];fillColor=none;resizable=0;rotatable=0;perimeter=centerPerimeter;snapToPoint=1;" parent="czv-a2nJ618KkXbS3twf-2" vertex="1">
          <mxGeometry y="20" width="20" height="20" as="geometry" />
        </mxCell>
        <mxCell id="czv-a2nJ618KkXbS3twf-5" value="" style="shape=waypoint;sketch=0;fillStyle=solid;size=6;pointerEvents=1;points=[];fillColor=none;resizable=0;rotatable=0;perimeter=centerPerimeter;snapToPoint=1;" parent="czv-a2nJ618KkXbS3twf-2" vertex="1">
          <mxGeometry y="40" width="20" height="20" as="geometry" />
        </mxCell>
        <mxCell id="czv-a2nJ618KkXbS3twf-6" value="" style="shape=curlyBracket;whiteSpace=wrap;html=1;rounded=1;labelPosition=left;verticalLabelPosition=middle;align=right;verticalAlign=middle;" parent="1" vertex="1">
          <mxGeometry x="151" y="40" width="20" height="140" as="geometry" />
        </mxCell>
        <mxCell id="czv-a2nJ618KkXbS3twf-7" value="" style="shape=curlyBracket;whiteSpace=wrap;html=1;rounded=1;flipH=1;labelPosition=right;verticalLabelPosition=middle;align=left;verticalAlign=middle;" parent="1" vertex="1">
          <mxGeometry x="436" y="40" width="20" height="140" as="geometry" />
        </mxCell>
      </root>
    </mxGraphModel>
  </diagram>
</mxfile>
